<?xml version="1.0" encoding="utf-8" ?>
<svg baseProfile="full" height="2300" version="1.1" width="2300" xmlns="http://www.w3.org/2000/svg" xmlns:ev="http://www.w3.org/2001/xml-events" xmlns:xlink="http://www.w3.org/1999/xlink"><defs /><rect fill="white" height="2300" width="2300" x="0" y="0" /><rect fill="none" height="100" stroke="black" stroke-width="5" width="100" x="100" y="100" /><rect fill="none" height="100" stroke="black" stroke-width="5" width="100" x="100" y="200" /><rect fill="none" height="100" stroke="black" stroke-width="5" width="100" x="100" y="300" /><rect fill="none" height="100" stroke="black" stroke-width="5" width="100" x="100" y="400" /><rect fill="none" height="100" stroke="black" stroke-width="5" width="100" x="100" y="500" /><rect fill="none" height="100" stroke="black" stroke-width="5" width="100" x="100" y="600" /><rect fill="none" height="100" stroke="black" stroke-width="5" width="100" x="100" y="700" /><rect fill="none" height="100" stroke="black" stroke-width="5" width="100" x="100" y="800" /><rect fill="none" height="100" stroke="black" stroke-width="5" width="100" x="100" y="900" /><rect fill="none" height="100" stroke="black" stroke-width="5" width="100" x="100" y="1000" /><rect fill="none" height="100" stroke="black" stroke-width="5" width="100" x="100" y="1100" /><rect fill="none" height="100" stroke="black" stroke-width="5" width="100" x="100" y="1200" /><rect fill="none" height="100" stroke="black" stroke-width="5" width="100" x="100" y="1300" /><rect fill="none" height="100" stroke="black" stroke-width="5" width="100" x="100" y="1400" /><rect fill="none" height="100" stroke="black" stroke-width="5" width="100" x="100" y="1500" /><rect fill="none" height="100" stroke="black" stroke-width="5" width="100" x="100" y="1600" /><rect fill="none" height="100" stroke="black" stroke-width="5" width="100" x="100" y="1700" /><rect fill="none" height="100" stroke="black" stroke-width="5" width="100" x="100" y="1800" /><rect fill="none" height="100" stroke="black" stroke-width="5" width="100" x="100" y="1900" /><rect fill="none" height="100" stroke="black" stroke-width="5" width="100" x="100" y="2000" /><rect fill="none" height="100" stroke="black" stroke-width="5" width="100" x="100" y="2100" /><rect fill="none" height="100" stroke="black" stroke-width="5" width="100" x="200" y="100" /><rect fill="none" height="100" stroke="black" stroke-width="5" width="100" x="200" y="200" /><rect fill="none" height="100" stroke="black" stroke-width="5" width="100" x="200" y="300" /><rect fill="none" height="100" stroke="black" stroke-width="5" width="100" x="200" y="400" /><rect fill="none" height="100" stroke="black" stroke-width="5" width="100" x="200" y="500" /><rect fill="none" height="100" stroke="black" stroke-width="5" width="100" x="200" y="600" /><rect fill="none" height="100" stroke="black" stroke-width="5" width="100" x="200" y="700" /><rect fill="none" height="100" stroke="black" stroke-width="5" width="100" x="200" y="800" /><rect fill="none" height="100" stroke="black" stroke-width="5" width="100" x="200" y="900" /><rect fill="none" height="100" stroke="black" stroke-width="5" width="100" x="200" y="1000" /><rect fill="none" height="100" stroke="black" stroke-width="5" width="100" x="200" y="1100" /><rect fill="none" height="100" stroke="black" stroke-width="5" width="100" x="200" y="1200" /><rect fill="none" height="100" stroke="black" stroke-width="5" width="100" x="200" y="1300" /><rect fill="none" height="100" stroke="black" stroke-width="5" width="100" x="200" y="1400" /><rect fill="none" height="100" stroke="black" stroke-width="5" width="100" x="200" y="1500" /><rect fill="none" height="100" stroke="black" stroke-width="5" width="100" x="200" y="1600" /><rect fill="none" height="100" stroke="black" stroke-width="5" width="100" x="200" y="1700" /><rect fill="none" height="100" stroke="black" stroke-width="5" width="100" x="200" y="1800" /><rect fill="none" height="100" stroke="black" stroke-width="5" width="100" x="200" y="1900" /><rect fill="none" height="100" stroke="black" stroke-width="5" width="100" x="200" y="2000" /><rect fill="none" height="100" stroke="black" stroke-width="5" width="100" x="200" y="2100" /><rect fill="none" height="100" stroke="black" stroke-width="5" width="100" x="300" y="100" /><rect fill="none" height="100" stroke="black" stroke-width="5" width="100" x="300" y="200" /><rect fill="none" height="100" stroke="black" stroke-width="5" width="100" x="300" y="300" /><rect fill="none" height="100" stroke="black" stroke-width="5" width="100" x="300" y="400" /><rect fill="none" height="100" stroke="black" stroke-width="5" width="100" x="300" y="500" /><rect fill="none" height="100" stroke="black" stroke-width="5" width="100" x="300" y="600" /><rect fill="none" height="100" stroke="black" stroke-width="5" width="100" x="300" y="700" /><rect fill="none" height="100" stroke="black" stroke-width="5" width="100" x="300" y="800" /><rect fill="none" height="100" stroke="black" stroke-width="5" width="100" x="300" y="900" /><rect fill="none" height="100" stroke="black" stroke-width="5" width="100" x="300" y="1000" /><rect fill="none" height="100" stroke="black" stroke-width="5" width="100" x="300" y="1100" /><rect fill="none" height="100" stroke="black" stroke-width="5" width="100" x="300" y="1200" /><rect fill="none" height="100" stroke="black" stroke-width="5" width="100" x="300" y="1300" /><rect fill="none" height="100" stroke="black" stroke-width="5" width="100" x="300" y="1400" /><rect fill="none" height="100" stroke="black" stroke-width="5" width="100" x="300" y="1500" /><rect fill="none" height="100" stroke="black" stroke-width="5" width="100" x="300" y="1600" /><rect fill="none" height="100" stroke="black" stroke-width="5" width="100" x="300" y="1700" /><rect fill="none" height="100" stroke="black" stroke-width="5" width="100" x="300" y="1800" /><rect fill="none" height="100" stroke="black" stroke-width="5" width="100" x="300" y="1900" /><rect fill="none" height="100" stroke="black" stroke-width="5" width="100" x="300" y="2000" /><rect fill="none" height="100" stroke="black" stroke-width="5" width="100" x="300" y="2100" /><rect fill="none" height="100" stroke="black" stroke-width="5" width="100" x="400" y="100" /><rect fill="none" height="100" stroke="black" stroke-width="5" width="100" x="400" y="200" /><rect fill="none" height="100" stroke="black" stroke-width="5" width="100" x="400" y="300" /><rect fill="none" height="100" stroke="black" stroke-width="5" width="100" x="400" y="400" /><rect fill="none" height="100" stroke="black" stroke-width="5" width="100" x="400" y="500" /><rect fill="none" height="100" stroke="black" stroke-width="5" width="100" x="400" y="600" /><rect fill="none" height="100" stroke="black" stroke-width="5" width="100" x="400" y="700" /><rect fill="none" height="100" stroke="black" stroke-width="5" width="100" x="400" y="800" /><rect fill="none" height="100" stroke="black" stroke-width="5" width="100" x="400" y="900" /><rect fill="none" height="100" stroke="black" stroke-width="5" width="100" x="400" y="1000" /><rect fill="none" height="100" stroke="black" stroke-width="5" width="100" x="400" y="1100" /><rect fill="none" height="100" stroke="black" stroke-width="5" width="100" x="400" y="1200" /><rect fill="none" height="100" stroke="black" stroke-width="5" width="100" x="400" y="1300" /><rect fill="none" height="100" stroke="black" stroke-width="5" width="100" x="400" y="1400" /><rect fill="none" height="100" stroke="black" stroke-width="5" width="100" x="400" y="1500" /><rect fill="none" height="100" stroke="black" stroke-width="5" width="100" x="400" y="1600" /><rect fill="none" height="100" stroke="black" stroke-width="5" width="100" x="400" y="1700" /><rect fill="none" height="100" stroke="black" stroke-width="5" width="100" x="400" y="1800" /><rect fill="none" height="100" stroke="black" stroke-width="5" width="100" x="400" y="1900" /><rect fill="none" height="100" stroke="black" stroke-width="5" width="100" x="400" y="2000" /><rect fill="none" height="100" stroke="black" stroke-width="5" width="100" x="400" y="2100" /><rect fill="none" height="100" stroke="black" stroke-width="5" width="100" x="500" y="100" /><rect fill="none" height="100" stroke="black" stroke-width="5" width="100" x="500" y="200" /><rect fill="none" height="100" stroke="black" stroke-width="5" width="100" x="500" y="300" /><rect fill="none" height="100" stroke="black" stroke-width="5" width="100" x="500" y="400" /><rect fill="none" height="100" stroke="black" stroke-width="5" width="100" x="500" y="500" /><rect fill="none" height="100" stroke="black" stroke-width="5" width="100" x="500" y="600" /><rect fill="none" height="100" stroke="black" stroke-width="5" width="100" x="500" y="700" /><rect fill="none" height="100" stroke="black" stroke-width="5" width="100" x="500" y="800" /><rect fill="none" height="100" stroke="black" stroke-width="5" width="100" x="500" y="900" /><rect fill="none" height="100" stroke="black" stroke-width="5" width="100" x="500" y="1000" /><rect fill="none" height="100" stroke="black" stroke-width="5" width="100" x="500" y="1100" /><rect fill="none" height="100" stroke="black" stroke-width="5" width="100" x="500" y="1200" /><rect fill="none" height="100" stroke="black" stroke-width="5" width="100" x="500" y="1300" /><rect fill="none" height="100" stroke="black" stroke-width="5" width="100" x="500" y="1400" /><rect fill="none" height="100" stroke="black" stroke-width="5" width="100" x="500" y="1500" /><rect fill="none" height="100" stroke="black" stroke-width="5" width="100" x="500" y="1600" /><rect fill="none" height="100" stroke="black" stroke-width="5" width="100" x="500" y="1700" /><rect fill="none" height="100" stroke="black" stroke-width="5" width="100" x="500" y="1800" /><rect fill="none" height="100" stroke="black" stroke-width="5" width="100" x="500" y="1900" /><rect fill="none" height="100" stroke="black" stroke-width="5" width="100" x="500" y="2000" /><rect fill="none" height="100" stroke="black" stroke-width="5" width="100" x="500" y="2100" /><rect fill="none" height="100" stroke="black" stroke-width="5" width="100" x="600" y="100" /><rect fill="none" height="100" stroke="black" stroke-width="5" width="100" x="600" y="200" /><rect fill="none" height="100" stroke="black" stroke-width="5" width="100" x="600" y="300" /><rect fill="none" height="100" stroke="black" stroke-width="5" width="100" x="600" y="400" /><rect fill="none" height="100" stroke="black" stroke-width="5" width="100" x="600" y="500" /><rect fill="none" height="100" stroke="black" stroke-width="5" width="100" x="600" y="600" /><rect fill="none" height="100" stroke="black" stroke-width="5" width="100" x="600" y="700" /><rect fill="none" height="100" stroke="black" stroke-width="5" width="100" x="600" y="800" /><rect fill="none" height="100" stroke="black" stroke-width="5" width="100" x="600" y="900" /><rect fill="none" height="100" stroke="black" stroke-width="5" width="100" x="600" y="1000" /><rect fill="none" height="100" stroke="black" stroke-width="5" width="100" x="600" y="1100" /><rect fill="none" height="100" stroke="black" stroke-width="5" width="100" x="600" y="1200" /><rect fill="none" height="100" stroke="black" stroke-width="5" width="100" x="600" y="1300" /><rect fill="none" height="100" stroke="black" stroke-width="5" width="100" x="600" y="1400" /><rect fill="none" height="100" stroke="black" stroke-width="5" width="100" x="600" y="1500" /><rect fill="none" height="100" stroke="black" stroke-width="5" width="100" x="600" y="1600" /><rect fill="none" height="100" stroke="black" stroke-width="5" width="100" x="600" y="1700" /><rect fill="none" height="100" stroke="black" stroke-width="5" width="100" x="600" y="1800" /><rect fill="none" height="100" stroke="black" stroke-width="5" width="100" x="600" y="1900" /><rect fill="none" height="100" stroke="black" stroke-width="5" width="100" x="600" y="2000" /><rect fill="none" height="100" stroke="black" stroke-width="5" width="100" x="600" y="2100" /><rect fill="none" height="100" stroke="black" stroke-width="5" width="100" x="700" y="100" /><rect fill="none" height="100" stroke="black" stroke-width="5" width="100" x="700" y="200" /><rect fill="none" height="100" stroke="black" stroke-width="5" width="100" x="700" y="300" /><rect fill="none" height="100" stroke="black" stroke-width="5" width="100" x="700" y="400" /><rect fill="none" height="100" stroke="black" stroke-width="5" width="100" x="700" y="500" /><rect fill="none" height="100" stroke="black" stroke-width="5" width="100" x="700" y="600" /><rect fill="none" height="100" stroke="black" stroke-width="5" width="100" x="700" y="700" /><rect fill="none" height="100" stroke="black" stroke-width="5" width="100" x="700" y="800" /><rect fill="none" height="100" stroke="black" stroke-width="5" width="100" x="700" y="900" /><rect fill="none" height="100" stroke="black" stroke-width="5" width="100" x="700" y="1000" /><rect fill="none" height="100" stroke="black" stroke-width="5" width="100" x="700" y="1100" /><rect fill="none" height="100" stroke="black" stroke-width="5" width="100" x="700" y="1200" /><rect fill="none" height="100" stroke="black" stroke-width="5" width="100" x="700" y="1300" /><rect fill="none" height="100" stroke="black" stroke-width="5" width="100" x="700" y="1400" /><rect fill="none" height="100" stroke="black" stroke-width="5" width="100" x="700" y="1500" /><rect fill="none" height="100" stroke="black" stroke-width="5" width="100" x="700" y="1600" /><rect fill="none" height="100" stroke="black" stroke-width="5" width="100" x="700" y="1700" /><rect fill="none" height="100" stroke="black" stroke-width="5" width="100" x="700" y="1800" /><rect fill="none" height="100" stroke="black" stroke-width="5" width="100" x="700" y="1900" /><rect fill="none" height="100" stroke="black" stroke-width="5" width="100" x="700" y="2000" /><rect fill="none" height="100" stroke="black" stroke-width="5" width="100" x="700" y="2100" /><rect fill="none" height="100" stroke="black" stroke-width="5" width="100" x="800" y="100" /><rect fill="none" height="100" stroke="black" stroke-width="5" width="100" x="800" y="200" /><rect fill="none" height="100" stroke="black" stroke-width="5" width="100" x="800" y="300" /><rect fill="none" height="100" stroke="black" stroke-width="5" width="100" x="800" y="400" /><rect fill="none" height="100" stroke="black" stroke-width="5" width="100" x="800" y="500" /><rect fill="none" height="100" stroke="black" stroke-width="5" width="100" x="800" y="600" /><rect fill="none" height="100" stroke="black" stroke-width="5" width="100" x="800" y="700" /><rect fill="none" height="100" stroke="black" stroke-width="5" width="100" x="800" y="800" /><rect fill="none" height="100" stroke="black" stroke-width="5" width="100" x="800" y="900" /><rect fill="none" height="100" stroke="black" stroke-width="5" width="100" x="800" y="1000" /><rect fill="none" height="100" stroke="black" stroke-width="5" width="100" x="800" y="1100" /><rect fill="none" height="100" stroke="black" stroke-width="5" width="100" x="800" y="1200" /><rect fill="none" height="100" stroke="black" stroke-width="5" width="100" x="800" y="1300" /><rect fill="none" height="100" stroke="black" stroke-width="5" width="100" x="800" y="1400" /><rect fill="none" height="100" stroke="black" stroke-width="5" width="100" x="800" y="1500" /><rect fill="none" height="100" stroke="black" stroke-width="5" width="100" x="800" y="1600" /><rect fill="none" height="100" stroke="black" stroke-width="5" width="100" x="800" y="1700" /><rect fill="none" height="100" stroke="black" stroke-width="5" width="100" x="800" y="1800" /><rect fill="none" height="100" stroke="black" stroke-width="5" width="100" x="800" y="1900" /><rect fill="none" height="100" stroke="black" stroke-width="5" width="100" x="800" y="2000" /><rect fill="none" height="100" stroke="black" stroke-width="5" width="100" x="800" y="2100" /><rect fill="none" height="100" stroke="black" stroke-width="5" width="100" x="900" y="100" /><rect fill="none" height="100" stroke="black" stroke-width="5" width="100" x="900" y="200" /><rect fill="none" height="100" stroke="black" stroke-width="5" width="100" x="900" y="300" /><rect fill="none" height="100" stroke="black" stroke-width="5" width="100" x="900" y="400" /><rect fill="none" height="100" stroke="black" stroke-width="5" width="100" x="900" y="500" /><rect fill="none" height="100" stroke="black" stroke-width="5" width="100" x="900" y="600" /><rect fill="none" height="100" stroke="black" stroke-width="5" width="100" x="900" y="700" /><rect fill="none" height="100" stroke="black" stroke-width="5" width="100" x="900" y="800" /><rect fill="none" height="100" stroke="black" stroke-width="5" width="100" x="900" y="900" /><rect fill="none" height="100" stroke="black" stroke-width="5" width="100" x="900" y="1000" /><rect fill="none" height="100" stroke="black" stroke-width="5" width="100" x="900" y="1100" /><rect fill="none" height="100" stroke="black" stroke-width="5" width="100" x="900" y="1200" /><rect fill="none" height="100" stroke="black" stroke-width="5" width="100" x="900" y="1300" /><rect fill="none" height="100" stroke="black" stroke-width="5" width="100" x="900" y="1400" /><rect fill="none" height="100" stroke="black" stroke-width="5" width="100" x="900" y="1500" /><rect fill="none" height="100" stroke="black" stroke-width="5" width="100" x="900" y="1600" /><rect fill="none" height="100" stroke="black" stroke-width="5" width="100" x="900" y="1700" /><rect fill="none" height="100" stroke="black" stroke-width="5" width="100" x="900" y="1800" /><rect fill="none" height="100" stroke="black" stroke-width="5" width="100" x="900" y="1900" /><rect fill="none" height="100" stroke="black" stroke-width="5" width="100" x="900" y="2000" /><rect fill="none" height="100" stroke="black" stroke-width="5" width="100" x="900" y="2100" /><rect fill="none" height="100" stroke="black" stroke-width="5" width="100" x="1000" y="100" /><rect fill="none" height="100" stroke="black" stroke-width="5" width="100" x="1000" y="200" /><rect fill="none" height="100" stroke="black" stroke-width="5" width="100" x="1000" y="300" /><rect fill="none" height="100" stroke="black" stroke-width="5" width="100" x="1000" y="400" /><rect fill="none" height="100" stroke="black" stroke-width="5" width="100" x="1000" y="500" /><rect fill="none" height="100" stroke="black" stroke-width="5" width="100" x="1000" y="600" /><rect fill="none" height="100" stroke="black" stroke-width="5" width="100" x="1000" y="700" /><rect fill="none" height="100" stroke="black" stroke-width="5" width="100" x="1000" y="800" /><rect fill="none" height="100" stroke="black" stroke-width="5" width="100" x="1000" y="900" /><rect fill="none" height="100" stroke="black" stroke-width="5" width="100" x="1000" y="1000" /><rect fill="none" height="100" stroke="black" stroke-width="5" width="100" x="1000" y="1100" /><rect fill="none" height="100" stroke="black" stroke-width="5" width="100" x="1000" y="1200" /><rect fill="none" height="100" stroke="black" stroke-width="5" width="100" x="1000" y="1300" /><rect fill="none" height="100" stroke="black" stroke-width="5" width="100" x="1000" y="1400" /><rect fill="none" height="100" stroke="black" stroke-width="5" width="100" x="1000" y="1500" /><rect fill="none" height="100" stroke="black" stroke-width="5" width="100" x="1000" y="1600" /><rect fill="none" height="100" stroke="black" stroke-width="5" width="100" x="1000" y="1700" /><rect fill="none" height="100" stroke="black" stroke-width="5" width="100" x="1000" y="1800" /><rect fill="none" height="100" stroke="black" stroke-width="5" width="100" x="1000" y="1900" /><rect fill="none" height="100" stroke="black" stroke-width="5" width="100" x="1000" y="2000" /><rect fill="none" height="100" stroke="black" stroke-width="5" width="100" x="1000" y="2100" /><rect fill="none" height="100" stroke="black" stroke-width="5" width="100" x="1100" y="100" /><rect fill="none" height="100" stroke="black" stroke-width="5" width="100" x="1100" y="200" /><rect fill="none" height="100" stroke="black" stroke-width="5" width="100" x="1100" y="300" /><rect fill="none" height="100" stroke="black" stroke-width="5" width="100" x="1100" y="400" /><rect fill="none" height="100" stroke="black" stroke-width="5" width="100" x="1100" y="500" /><rect fill="none" height="100" stroke="black" stroke-width="5" width="100" x="1100" y="600" /><rect fill="none" height="100" stroke="black" stroke-width="5" width="100" x="1100" y="700" /><rect fill="none" height="100" stroke="black" stroke-width="5" width="100" x="1100" y="800" /><rect fill="none" height="100" stroke="black" stroke-width="5" width="100" x="1100" y="900" /><rect fill="none" height="100" stroke="black" stroke-width="5" width="100" x="1100" y="1000" /><rect fill="none" height="100" stroke="black" stroke-width="5" width="100" x="1100" y="1100" /><rect fill="none" height="100" stroke="black" stroke-width="5" width="100" x="1100" y="1200" /><rect fill="none" height="100" stroke="black" stroke-width="5" width="100" x="1100" y="1300" /><rect fill="none" height="100" stroke="black" stroke-width="5" width="100" x="1100" y="1400" /><rect fill="none" height="100" stroke="black" stroke-width="5" width="100" x="1100" y="1500" /><rect fill="none" height="100" stroke="black" stroke-width="5" width="100" x="1100" y="1600" /><rect fill="none" height="100" stroke="black" stroke-width="5" width="100" x="1100" y="1700" /><rect fill="none" height="100" stroke="black" stroke-width="5" width="100" x="1100" y="1800" /><rect fill="none" height="100" stroke="black" stroke-width="5" width="100" x="1100" y="1900" /><rect fill="none" height="100" stroke="black" stroke-width="5" width="100" x="1100" y="2000" /><rect fill="none" height="100" stroke="black" stroke-width="5" width="100" x="1100" y="2100" /><rect fill="none" height="100" stroke="black" stroke-width="5" width="100" x="1200" y="100" /><rect fill="none" height="100" stroke="black" stroke-width="5" width="100" x="1200" y="200" /><rect fill="none" height="100" stroke="black" stroke-width="5" width="100" x="1200" y="300" /><rect fill="none" height="100" stroke="black" stroke-width="5" width="100" x="1200" y="400" /><rect fill="none" height="100" stroke="black" stroke-width="5" width="100" x="1200" y="500" /><rect fill="none" height="100" stroke="black" stroke-width="5" width="100" x="1200" y="600" /><rect fill="none" height="100" stroke="black" stroke-width="5" width="100" x="1200" y="700" /><rect fill="none" height="100" stroke="black" stroke-width="5" width="100" x="1200" y="800" /><rect fill="none" height="100" stroke="black" stroke-width="5" width="100" x="1200" y="900" /><rect fill="none" height="100" stroke="black" stroke-width="5" width="100" x="1200" y="1000" /><rect fill="none" height="100" stroke="black" stroke-width="5" width="100" x="1200" y="1100" /><rect fill="none" height="100" stroke="black" stroke-width="5" width="100" x="1200" y="1200" /><rect fill="none" height="100" stroke="black" stroke-width="5" width="100" x="1200" y="1300" /><rect fill="none" height="100" stroke="black" stroke-width="5" width="100" x="1200" y="1400" /><rect fill="none" height="100" stroke="black" stroke-width="5" width="100" x="1200" y="1500" /><rect fill="none" height="100" stroke="black" stroke-width="5" width="100" x="1200" y="1600" /><rect fill="none" height="100" stroke="black" stroke-width="5" width="100" x="1200" y="1700" /><rect fill="none" height="100" stroke="black" stroke-width="5" width="100" x="1200" y="1800" /><rect fill="none" height="100" stroke="black" stroke-width="5" width="100" x="1200" y="1900" /><rect fill="none" height="100" stroke="black" stroke-width="5" width="100" x="1200" y="2000" /><rect fill="none" height="100" stroke="black" stroke-width="5" width="100" x="1200" y="2100" /><rect fill="none" height="100" stroke="black" stroke-width="5" width="100" x="1300" y="100" /><rect fill="none" height="100" stroke="black" stroke-width="5" width="100" x="1300" y="200" /><rect fill="none" height="100" stroke="black" stroke-width="5" width="100" x="1300" y="300" /><rect fill="none" height="100" stroke="black" stroke-width="5" width="100" x="1300" y="400" /><rect fill="none" height="100" stroke="black" stroke-width="5" width="100" x="1300" y="500" /><rect fill="none" height="100" stroke="black" stroke-width="5" width="100" x="1300" y="600" /><rect fill="none" height="100" stroke="black" stroke-width="5" width="100" x="1300" y="700" /><rect fill="none" height="100" stroke="black" stroke-width="5" width="100" x="1300" y="800" /><rect fill="none" height="100" stroke="black" stroke-width="5" width="100" x="1300" y="900" /><rect fill="none" height="100" stroke="black" stroke-width="5" width="100" x="1300" y="1000" /><rect fill="none" height="100" stroke="black" stroke-width="5" width="100" x="1300" y="1100" /><rect fill="none" height="100" stroke="black" stroke-width="5" width="100" x="1300" y="1200" /><rect fill="none" height="100" stroke="black" stroke-width="5" width="100" x="1300" y="1300" /><rect fill="none" height="100" stroke="black" stroke-width="5" width="100" x="1300" y="1400" /><rect fill="none" height="100" stroke="black" stroke-width="5" width="100" x="1300" y="1500" /><rect fill="none" height="100" stroke="black" stroke-width="5" width="100" x="1300" y="1600" /><rect fill="none" height="100" stroke="black" stroke-width="5" width="100" x="1300" y="1700" /><rect fill="none" height="100" stroke="black" stroke-width="5" width="100" x="1300" y="1800" /><rect fill="none" height="100" stroke="black" stroke-width="5" width="100" x="1300" y="1900" /><rect fill="none" height="100" stroke="black" stroke-width="5" width="100" x="1300" y="2000" /><rect fill="none" height="100" stroke="black" stroke-width="5" width="100" x="1300" y="2100" /><rect fill="none" height="100" stroke="black" stroke-width="5" width="100" x="1400" y="100" /><rect fill="none" height="100" stroke="black" stroke-width="5" width="100" x="1400" y="200" /><rect fill="none" height="100" stroke="black" stroke-width="5" width="100" x="1400" y="300" /><rect fill="none" height="100" stroke="black" stroke-width="5" width="100" x="1400" y="400" /><rect fill="none" height="100" stroke="black" stroke-width="5" width="100" x="1400" y="500" /><rect fill="none" height="100" stroke="black" stroke-width="5" width="100" x="1400" y="600" /><rect fill="none" height="100" stroke="black" stroke-width="5" width="100" x="1400" y="700" /><rect fill="none" height="100" stroke="black" stroke-width="5" width="100" x="1400" y="800" /><rect fill="none" height="100" stroke="black" stroke-width="5" width="100" x="1400" y="900" /><rect fill="none" height="100" stroke="black" stroke-width="5" width="100" x="1400" y="1000" /><rect fill="none" height="100" stroke="black" stroke-width="5" width="100" x="1400" y="1100" /><rect fill="none" height="100" stroke="black" stroke-width="5" width="100" x="1400" y="1200" /><rect fill="none" height="100" stroke="black" stroke-width="5" width="100" x="1400" y="1300" /><rect fill="none" height="100" stroke="black" stroke-width="5" width="100" x="1400" y="1400" /><rect fill="none" height="100" stroke="black" stroke-width="5" width="100" x="1400" y="1500" /><rect fill="none" height="100" stroke="black" stroke-width="5" width="100" x="1400" y="1600" /><rect fill="none" height="100" stroke="black" stroke-width="5" width="100" x="1400" y="1700" /><rect fill="none" height="100" stroke="black" stroke-width="5" width="100" x="1400" y="1800" /><rect fill="none" height="100" stroke="black" stroke-width="5" width="100" x="1400" y="1900" /><rect fill="none" height="100" stroke="black" stroke-width="5" width="100" x="1400" y="2000" /><rect fill="none" height="100" stroke="black" stroke-width="5" width="100" x="1400" y="2100" /><rect fill="none" height="100" stroke="black" stroke-width="5" width="100" x="1500" y="100" /><rect fill="none" height="100" stroke="black" stroke-width="5" width="100" x="1500" y="200" /><rect fill="none" height="100" stroke="black" stroke-width="5" width="100" x="1500" y="300" /><rect fill="none" height="100" stroke="black" stroke-width="5" width="100" x="1500" y="400" /><rect fill="none" height="100" stroke="black" stroke-width="5" width="100" x="1500" y="500" /><rect fill="none" height="100" stroke="black" stroke-width="5" width="100" x="1500" y="600" /><rect fill="none" height="100" stroke="black" stroke-width="5" width="100" x="1500" y="700" /><rect fill="none" height="100" stroke="black" stroke-width="5" width="100" x="1500" y="800" /><rect fill="none" height="100" stroke="black" stroke-width="5" width="100" x="1500" y="900" /><rect fill="none" height="100" stroke="black" stroke-width="5" width="100" x="1500" y="1000" /><rect fill="none" height="100" stroke="black" stroke-width="5" width="100" x="1500" y="1100" /><rect fill="none" height="100" stroke="black" stroke-width="5" width="100" x="1500" y="1200" /><rect fill="none" height="100" stroke="black" stroke-width="5" width="100" x="1500" y="1300" /><rect fill="none" height="100" stroke="black" stroke-width="5" width="100" x="1500" y="1400" /><rect fill="none" height="100" stroke="black" stroke-width="5" width="100" x="1500" y="1500" /><rect fill="none" height="100" stroke="black" stroke-width="5" width="100" x="1500" y="1600" /><rect fill="none" height="100" stroke="black" stroke-width="5" width="100" x="1500" y="1700" /><rect fill="none" height="100" stroke="black" stroke-width="5" width="100" x="1500" y="1800" /><rect fill="none" height="100" stroke="black" stroke-width="5" width="100" x="1500" y="1900" /><rect fill="none" height="100" stroke="black" stroke-width="5" width="100" x="1500" y="2000" /><rect fill="none" height="100" stroke="black" stroke-width="5" width="100" x="1500" y="2100" /><rect fill="none" height="100" stroke="black" stroke-width="5" width="100" x="1600" y="100" /><rect fill="none" height="100" stroke="black" stroke-width="5" width="100" x="1600" y="200" /><rect fill="none" height="100" stroke="black" stroke-width="5" width="100" x="1600" y="300" /><rect fill="none" height="100" stroke="black" stroke-width="5" width="100" x="1600" y="400" /><rect fill="none" height="100" stroke="black" stroke-width="5" width="100" x="1600" y="500" /><rect fill="none" height="100" stroke="black" stroke-width="5" width="100" x="1600" y="600" /><rect fill="none" height="100" stroke="black" stroke-width="5" width="100" x="1600" y="700" /><rect fill="none" height="100" stroke="black" stroke-width="5" width="100" x="1600" y="800" /><rect fill="none" height="100" stroke="black" stroke-width="5" width="100" x="1600" y="900" /><rect fill="none" height="100" stroke="black" stroke-width="5" width="100" x="1600" y="1000" /><rect fill="none" height="100" stroke="black" stroke-width="5" width="100" x="1600" y="1100" /><rect fill="none" height="100" stroke="black" stroke-width="5" width="100" x="1600" y="1200" /><rect fill="none" height="100" stroke="black" stroke-width="5" width="100" x="1600" y="1300" /><rect fill="none" height="100" stroke="black" stroke-width="5" width="100" x="1600" y="1400" /><rect fill="none" height="100" stroke="black" stroke-width="5" width="100" x="1600" y="1500" /><rect fill="none" height="100" stroke="black" stroke-width="5" width="100" x="1600" y="1600" /><rect fill="none" height="100" stroke="black" stroke-width="5" width="100" x="1600" y="1700" /><rect fill="none" height="100" stroke="black" stroke-width="5" width="100" x="1600" y="1800" /><rect fill="none" height="100" stroke="black" stroke-width="5" width="100" x="1600" y="1900" /><rect fill="none" height="100" stroke="black" stroke-width="5" width="100" x="1600" y="2000" /><rect fill="none" height="100" stroke="black" stroke-width="5" width="100" x="1600" y="2100" /><rect fill="none" height="100" stroke="black" stroke-width="5" width="100" x="1700" y="100" /><rect fill="none" height="100" stroke="black" stroke-width="5" width="100" x="1700" y="200" /><rect fill="none" height="100" stroke="black" stroke-width="5" width="100" x="1700" y="300" /><rect fill="none" height="100" stroke="black" stroke-width="5" width="100" x="1700" y="400" /><rect fill="none" height="100" stroke="black" stroke-width="5" width="100" x="1700" y="500" /><rect fill="none" height="100" stroke="black" stroke-width="5" width="100" x="1700" y="600" /><rect fill="none" height="100" stroke="black" stroke-width="5" width="100" x="1700" y="700" /><rect fill="none" height="100" stroke="black" stroke-width="5" width="100" x="1700" y="800" /><rect fill="none" height="100" stroke="black" stroke-width="5" width="100" x="1700" y="900" /><rect fill="none" height="100" stroke="black" stroke-width="5" width="100" x="1700" y="1000" /><rect fill="none" height="100" stroke="black" stroke-width="5" width="100" x="1700" y="1100" /><rect fill="none" height="100" stroke="black" stroke-width="5" width="100" x="1700" y="1200" /><rect fill="none" height="100" stroke="black" stroke-width="5" width="100" x="1700" y="1300" /><rect fill="none" height="100" stroke="black" stroke-width="5" width="100" x="1700" y="1400" /><rect fill="none" height="100" stroke="black" stroke-width="5" width="100" x="1700" y="1500" /><rect fill="none" height="100" stroke="black" stroke-width="5" width="100" x="1700" y="1600" /><rect fill="none" height="100" stroke="black" stroke-width="5" width="100" x="1700" y="1700" /><rect fill="none" height="100" stroke="black" stroke-width="5" width="100" x="1700" y="1800" /><rect fill="none" height="100" stroke="black" stroke-width="5" width="100" x="1700" y="1900" /><rect fill="none" height="100" stroke="black" stroke-width="5" width="100" x="1700" y="2000" /><rect fill="none" height="100" stroke="black" stroke-width="5" width="100" x="1700" y="2100" /><rect fill="none" height="100" stroke="black" stroke-width="5" width="100" x="1800" y="100" /><rect fill="none" height="100" stroke="black" stroke-width="5" width="100" x="1800" y="200" /><rect fill="none" height="100" stroke="black" stroke-width="5" width="100" x="1800" y="300" /><rect fill="none" height="100" stroke="black" stroke-width="5" width="100" x="1800" y="400" /><rect fill="none" height="100" stroke="black" stroke-width="5" width="100" x="1800" y="500" /><rect fill="none" height="100" stroke="black" stroke-width="5" width="100" x="1800" y="600" /><rect fill="none" height="100" stroke="black" stroke-width="5" width="100" x="1800" y="700" /><rect fill="none" height="100" stroke="black" stroke-width="5" width="100" x="1800" y="800" /><rect fill="none" height="100" stroke="black" stroke-width="5" width="100" x="1800" y="900" /><rect fill="none" height="100" stroke="black" stroke-width="5" width="100" x="1800" y="1000" /><rect fill="none" height="100" stroke="black" stroke-width="5" width="100" x="1800" y="1100" /><rect fill="none" height="100" stroke="black" stroke-width="5" width="100" x="1800" y="1200" /><rect fill="none" height="100" stroke="black" stroke-width="5" width="100" x="1800" y="1300" /><rect fill="none" height="100" stroke="black" stroke-width="5" width="100" x="1800" y="1400" /><rect fill="none" height="100" stroke="black" stroke-width="5" width="100" x="1800" y="1500" /><rect fill="none" height="100" stroke="black" stroke-width="5" width="100" x="1800" y="1600" /><rect fill="none" height="100" stroke="black" stroke-width="5" width="100" x="1800" y="1700" /><rect fill="none" height="100" stroke="black" stroke-width="5" width="100" x="1800" y="1800" /><rect fill="none" height="100" stroke="black" stroke-width="5" width="100" x="1800" y="1900" /><rect fill="none" height="100" stroke="black" stroke-width="5" width="100" x="1800" y="2000" /><rect fill="none" height="100" stroke="black" stroke-width="5" width="100" x="1800" y="2100" /><rect fill="none" height="100" stroke="black" stroke-width="5" width="100" x="1900" y="100" /><rect fill="none" height="100" stroke="black" stroke-width="5" width="100" x="1900" y="200" /><rect fill="none" height="100" stroke="black" stroke-width="5" width="100" x="1900" y="300" /><rect fill="none" height="100" stroke="black" stroke-width="5" width="100" x="1900" y="400" /><rect fill="none" height="100" stroke="black" stroke-width="5" width="100" x="1900" y="500" /><rect fill="none" height="100" stroke="black" stroke-width="5" width="100" x="1900" y="600" /><rect fill="none" height="100" stroke="black" stroke-width="5" width="100" x="1900" y="700" /><rect fill="none" height="100" stroke="black" stroke-width="5" width="100" x="1900" y="800" /><rect fill="none" height="100" stroke="black" stroke-width="5" width="100" x="1900" y="900" /><rect fill="none" height="100" stroke="black" stroke-width="5" width="100" x="1900" y="1000" /><rect fill="none" height="100" stroke="black" stroke-width="5" width="100" x="1900" y="1100" /><rect fill="none" height="100" stroke="black" stroke-width="5" width="100" x="1900" y="1200" /><rect fill="none" height="100" stroke="black" stroke-width="5" width="100" x="1900" y="1300" /><rect fill="none" height="100" stroke="black" stroke-width="5" width="100" x="1900" y="1400" /><rect fill="none" height="100" stroke="black" stroke-width="5" width="100" x="1900" y="1500" /><rect fill="none" height="100" stroke="black" stroke-width="5" width="100" x="1900" y="1600" /><rect fill="none" height="100" stroke="black" stroke-width="5" width="100" x="1900" y="1700" /><rect fill="none" height="100" stroke="black" stroke-width="5" width="100" x="1900" y="1800" /><rect fill="none" height="100" stroke="black" stroke-width="5" width="100" x="1900" y="1900" /><rect fill="none" height="100" stroke="black" stroke-width="5" width="100" x="1900" y="2000" /><rect fill="none" height="100" stroke="black" stroke-width="5" width="100" x="1900" y="2100" /><rect fill="none" height="100" stroke="black" stroke-width="5" width="100" x="2000" y="100" /><rect fill="none" height="100" stroke="black" stroke-width="5" width="100" x="2000" y="200" /><rect fill="none" height="100" stroke="black" stroke-width="5" width="100" x="2000" y="300" /><rect fill="none" height="100" stroke="black" stroke-width="5" width="100" x="2000" y="400" /><rect fill="none" height="100" stroke="black" stroke-width="5" width="100" x="2000" y="500" /><rect fill="none" height="100" stroke="black" stroke-width="5" width="100" x="2000" y="600" /><rect fill="none" height="100" stroke="black" stroke-width="5" width="100" x="2000" y="700" /><rect fill="none" height="100" stroke="black" stroke-width="5" width="100" x="2000" y="800" /><rect fill="none" height="100" stroke="black" stroke-width="5" width="100" x="2000" y="900" /><rect fill="none" height="100" stroke="black" stroke-width="5" width="100" x="2000" y="1000" /><rect fill="none" height="100" stroke="black" stroke-width="5" width="100" x="2000" y="1100" /><rect fill="none" height="100" stroke="black" stroke-width="5" width="100" x="2000" y="1200" /><rect fill="none" height="100" stroke="black" stroke-width="5" width="100" x="2000" y="1300" /><rect fill="none" height="100" stroke="black" stroke-width="5" width="100" x="2000" y="1400" /><rect fill="none" height="100" stroke="black" stroke-width="5" width="100" x="2000" y="1500" /><rect fill="none" height="100" stroke="black" stroke-width="5" width="100" x="2000" y="1600" /><rect fill="none" height="100" stroke="black" stroke-width="5" width="100" x="2000" y="1700" /><rect fill="none" height="100" stroke="black" stroke-width="5" width="100" x="2000" y="1800" /><rect fill="none" height="100" stroke="black" stroke-width="5" width="100" x="2000" y="1900" /><rect fill="none" height="100" stroke="black" stroke-width="5" width="100" x="2000" y="2000" /><rect fill="none" height="100" stroke="black" stroke-width="5" width="100" x="2000" y="2100" /><rect fill="none" height="100" stroke="black" stroke-width="5" width="100" x="2100" y="100" /><rect fill="none" height="100" stroke="black" stroke-width="5" width="100" x="2100" y="200" /><rect fill="none" height="100" stroke="black" stroke-width="5" width="100" x="2100" y="300" /><rect fill="none" height="100" stroke="black" stroke-width="5" width="100" x="2100" y="400" /><rect fill="none" height="100" stroke="black" stroke-width="5" width="100" x="2100" y="500" /><rect fill="none" height="100" stroke="black" stroke-width="5" width="100" x="2100" y="600" /><rect fill="none" height="100" stroke="black" stroke-width="5" width="100" x="2100" y="700" /><rect fill="none" height="100" stroke="black" stroke-width="5" width="100" x="2100" y="800" /><rect fill="none" height="100" stroke="black" stroke-width="5" width="100" x="2100" y="900" /><rect fill="none" height="100" stroke="black" stroke-width="5" width="100" x="2100" y="1000" /><rect fill="none" height="100" stroke="black" stroke-width="5" width="100" x="2100" y="1100" /><rect fill="none" height="100" stroke="black" stroke-width="5" width="100" x="2100" y="1200" /><rect fill="none" height="100" stroke="black" stroke-width="5" width="100" x="2100" y="1300" /><rect fill="none" height="100" stroke="black" stroke-width="5" width="100" x="2100" y="1400" /><rect fill="none" height="100" stroke="black" stroke-width="5" width="100" x="2100" y="1500" /><rect fill="none" height="100" stroke="black" stroke-width="5" width="100" x="2100" y="1600" /><rect fill="none" height="100" stroke="black" stroke-width="5" width="100" x="2100" y="1700" /><rect fill="none" height="100" stroke="black" stroke-width="5" width="100" x="2100" y="1800" /><rect fill="none" height="100" stroke="black" stroke-width="5" width="100" x="2100" y="1900" /><rect fill="none" height="100" stroke="black" stroke-width="5" width="100" x="2100" y="2000" /><rect fill="none" height="100" stroke="black" stroke-width="5" width="100" x="2100" y="2100" /><text font-size="50" text-anchor="middle" x="150.0" y="75">1</text><text font-size="50" text-anchor="middle" x="250.0" y="75">2</text><text font-size="50" text-anchor="middle" x="350.0" y="75">3</text><text font-size="50" text-anchor="middle" x="450.0" y="75">4</text><text font-size="50" text-anchor="middle" x="550.0" y="75">5</text><text font-size="50" text-anchor="middle" x="650.0" y="75">6</text><text font-size="50" text-anchor="middle" x="750.0" y="75">7</text><text font-size="50" text-anchor="middle" x="850.0" y="75">8</text><text font-size="50" text-anchor="middle" x="950.0" y="75">9</text><text font-size="50" text-anchor="middle" x="1050.0" y="75">10</text><text font-size="50" text-anchor="middle" x="1150.0" y="75">11</text><text font-size="50" text-anchor="middle" x="1250.0" y="75">12</text><text font-size="50" text-anchor="middle" x="1350.0" y="75">13</text><text font-size="50" text-anchor="middle" x="1450.0" y="75">14</text><text font-size="50" text-anchor="middle" x="1550.0" y="75">15</text><text font-size="50" text-anchor="middle" x="1650.0" y="75">16</text><text font-size="50" text-anchor="middle" x="1750.0" y="75">17</text><text font-size="50" text-anchor="middle" x="1850.0" y="75">18</text><text font-size="50" text-anchor="middle" x="1950.0" y="75">19</text><text font-size="50" text-anchor="middle" x="2050.0" y="75">20</text><text font-size="50" text-anchor="middle" x="2150.0" y="75">21</text><text font-size="50" text-anchor="end" x="75" y="175">1</text><text font-size="50" text-anchor="end" x="75" y="275">2</text><text font-size="50" text-anchor="end" x="75" y="375">3</text><text font-size="50" text-anchor="end" x="75" y="475">4</text><text font-size="50" text-anchor="end" x="75" y="575">5</text><text font-size="50" text-anchor="end" x="75" y="675">6</text><text font-size="50" text-anchor="end" x="75" y="775">7</text><text font-size="50" text-anchor="end" x="75" y="875">8</text><text font-size="50" text-anchor="end" x="75" y="975">9</text><text font-size="50" text-anchor="end" x="75" y="1075">10</text><text font-size="50" text-anchor="end" x="75" y="1175">11</text><text font-size="50" text-anchor="end" x="75" y="1275">12</text><text font-size="50" text-anchor="end" x="75" y="1375">13</text><text font-size="50" text-anchor="end" x="75" y="1475">14</text><text font-size="50" text-anchor="end" x="75" y="1575">15</text><text font-size="50" text-anchor="end" x="75" y="1675">16</text><text font-size="50" text-anchor="end" x="75" y="1775">17</text><text font-size="50" text-anchor="end" x="75" y="1875">18</text><text font-size="50" text-anchor="end" x="75" y="1975">19</text><text font-size="50" text-anchor="end" x="75" y="2075">20</text><text font-size="50" text-anchor="end" x="75" y="2175">21</text><rect fill="red" height="100" stroke="black" stroke-width="5" width="100" x="100" y="1100.0" /><rect fill="red" height="100" stroke="black" stroke-width="5" width="100" x="500" y="1100.0" /><rect fill="red" height="100" stroke="black" stroke-width="5" width="100" x="1700" y="1100.0" /><rect fill="red" height="100" stroke="black" stroke-width="5" width="100" x="2100" y="1100.0" /></svg>